<svg xmlns="http://www.w3.org/2000/svg" xmlns:xlink="http://www.w3.org/1999/xlink" width="369.868" height="31.712" viewBox="0 0 369.868 31.712">
  <defs>
    <clipPath id="clip-path">
      <rect id="사각형_8330" data-name="사각형 8330" width="120.076" height="27.411" fill="none"/>
    </clipPath>
    <clipPath id="clip-path-2">
      <rect id="사각형_340914" data-name="사각형 340914" width="239.792" height="31.712" fill="#191919"/>
    </clipPath>
  </defs>
  <g id="그룹_463343" data-name="그룹 463343" transform="translate(-102 -12190.987)">
    <g id="그룹_27795" data-name="그룹 27795" transform="translate(351.792 12190.987)">
      <path id="패스_7182" data-name="패스 7182" d="M23.025.154,14.336,22.262,5.535.154H0V27.211H2.017V5.69l8.615,21.522h3.85L23.025,5.543V27.211h5.354V.154Z" transform="translate(0 -0.094)" fill="#005d82"/>
      <g id="그룹_27771" data-name="그룹 27771">
        <g id="그룹_27770" data-name="그룹 27770" clip-path="url(#clip-path)">
          <path id="패스_7183" data-name="패스 7183" d="M81.336,31.613c0-5.709,3.319-9.365,9.44-9.365s9.477,3.656,9.477,9.365-3.321,9.327-9.477,9.327c-6.193,0-9.44-3.544-9.44-9.327m13.469,0c0-5.261-1.044-7.575-4.029-7.575s-4.03,2.313-4.03,7.575c0,5.223,1.044,7.575,4.03,7.575s4.029-2.351,4.029-7.575" transform="translate(-49.464 -13.53)" fill="#005d82"/>
          <path id="패스_7184" data-name="패스 7184" d="M136.264,18.339c0-5.94,3.189-9.2,7.992-9.2a8.807,8.807,0,0,1,4.876,1.283V.154h5.241V27.211h-5.058V26.149a8.793,8.793,0,0,1-5.06,1.356c-4.913,0-7.992-3.336-7.992-9.165m12.868,6.673V11.7a8.712,8.712,0,0,0-2.786-.477c-3.154,0-4.768,1.76-4.768,7.113,0,5.426,1.65,7.149,4.73,7.149a8.947,8.947,0,0,0,2.823-.476" transform="translate(-82.868 -0.094)" fill="#005d82"/>
          <path id="패스_7185" data-name="패스 7185" d="M190.635,32.242c0-6.232,3.849-9.165,8.763-9.165,5.316,0,8.506,2.823,8.506,8.836a8.779,8.779,0,0,1-.11,1.319H195.805c.109,5.243,1.613,6.343,6.379,6.343a25.892,25.892,0,0,0,4.766-.4v1.576a25.947,25.947,0,0,1-5.83.587c-6.194,0-10.485-1.87-10.485-9.093m5.17-.659h7.186c-.11-4.986-.7-6.746-3.555-6.746-2.713,0-3.557,1.723-3.63,6.746" transform="translate(-115.933 -14.034)" fill="#005d82"/>
          <path id="패스_7186" data-name="패스 7186" d="M236.87,23.825H242.4l5.647,14.152,5.535-14.152h2.163l-7.04,17.782h-4.693Z" transform="translate(-144.05 -14.489)" fill="#a0adac"/>
          <rect id="사각형_8329" data-name="사각형 8329" width="5.279" height="17.782" transform="translate(113.869 9.336)" fill="#a0adac"/>
          <path id="패스_7187" data-name="패스 7187" d="M288.218,0h7.136l-3.568,6.245Z" transform="translate(-175.277 0)" fill="#ffc062"/>
        </g>
      </g>
    </g>
    <g id="그룹_463296" data-name="그룹 463296" transform="translate(102 12190.987)">
      <path id="패스_7426" data-name="패스 7426" d="M0,6.328V30.509H4.491V21.251H16.167v-3.8H4.491V10.094H17.652V6.328Z" transform="translate(0 -3.841)" fill="#191919"/>
      <g id="그룹_463295" data-name="그룹 463295" transform="translate(0 0)">
        <g id="그룹_463294" data-name="그룹 463294" clip-path="url(#clip-path-2)">
          <path id="패스_7427" data-name="패스 7427" d="M50.8,2.591A2.63,2.63,0,0,1,53.562,0a2.571,2.571,0,0,1,2.763,2.488,2.767,2.767,0,0,1-5.527.1m.587,5.631H55.7V26.668H51.386Z" transform="translate(-30.833 0)" fill="#191919"/>
          <path id="패스_7428" data-name="패스 7428" d="M83.234,32.068a6.789,6.789,0,0,1-4.146,1.244c-4.042,0-6.356-2.142-6.356-6.218V18.216h-3.04V14.762h3.04V10.547H77.05v4.215h4.94v3.454H77.05V26.99c0,1.8.9,2.763,2.556,2.763a3.884,3.884,0,0,0,2.418-.76Z" transform="translate(-42.3 -6.401)" fill="#191919"/>
          <path id="패스_7429" data-name="패스 7429" d="M132.442,2.591A2.631,2.631,0,0,1,135.206,0a2.571,2.571,0,0,1,2.763,2.488,2.767,2.767,0,0,1-5.527.1m.588,5.631h4.318V26.668H133.03Z" transform="translate(-80.387 0)" fill="#191919"/>
          <path id="패스_7430" data-name="패스 7430" d="M175.747,28.474V39.045h-4.318V29.027c0-3.281-1.624-4.871-4.387-4.871-3.075,0-5.147,1.865-5.147,5.561v9.327h-4.318V20.6h4.111v2.383a8.021,8.021,0,0,1,6.356-2.591c4.422,0,7.7,2.522,7.7,8.083" transform="translate(-95.643 -12.376)" fill="#191919"/>
          <path id="패스_7431" data-name="패스 7431" d="M243.594,22.149v8.36h-2.522v-8.36L231.4,6.328h2.729L242.419,19.9l8.29-13.576h2.556Z" transform="translate(-140.451 -3.841)" fill="#191919"/>
          <path id="패스_7432" data-name="패스 7432" d="M284.132,30.492a9.241,9.241,0,0,1,18.481,0,9.241,9.241,0,1,1-18.481,0m15.994,0c0-4.249-2.867-7.082-6.736-7.082s-6.771,2.833-6.771,7.082,2.9,7.082,6.771,7.082,6.736-2.833,6.736-7.082" transform="translate(-172.457 -12.909)" fill="#191919"/>
          <path id="패스_7433" data-name="패스 7433" d="M358.244,21.621v18.17h-2.349V36.475a7.228,7.228,0,0,1-6.529,3.489c-4.629,0-7.669-2.591-7.669-7.807V21.621h2.453V31.915c0,3.869,2,5.838,5.458,5.838,3.8,0,6.184-2.453,6.184-6.6V21.621Z" transform="translate(-207.397 -13.123)" fill="#191919"/>
          <path id="패스_7434" data-name="패스 7434" d="M408.679,21.27v2.383c-.207,0-.415-.034-.587-.034-3.8,0-6.114,2.418-6.114,6.7v9.258h-2.453V21.408h2.349v3.558c1.14-2.418,3.454-3.7,6.805-3.7" transform="translate(-242.496 -12.91)" fill="#191919"/>
          <path id="패스_7435" data-name="패스 7435" d="M455.595,6.328h2.556V28.3h13.541v2.211h-16.1Z" transform="translate(-276.528 -3.841)" fill="#191919"/>
          <path id="패스_7436" data-name="패스 7436" d="M502.877,4.364a1.77,1.77,0,0,1,1.8-1.727,1.742,1.742,0,0,1,1.8,1.693,1.8,1.8,0,0,1-3.593.035m.553,5.734h2.453v18.17H503.43Z" transform="translate(-305.227 -1.6)" fill="#191919"/>
          <path id="패스_7437" data-name="패스 7437" d="M524.591,7.69V9.831h5.6V11.9H524.66V28h-2.453V11.9H518.96V9.831h3.247V7.586c0-3.247,1.934-5.389,5.492-5.389a5.758,5.758,0,0,1,3.627,1.14L530.5,5.168a4.155,4.155,0,0,0-2.694-.9c-2.107,0-3.213,1.174-3.213,3.42" transform="translate(-314.989 -1.333)" fill="#191919"/>
          <path id="패스_7438" data-name="패스 7438" d="M566.406,31.253h-15.2c.276,3.8,3.178,6.322,7.151,6.322a7.163,7.163,0,0,0,5.562-2.383L565.3,36.78a8.943,8.943,0,0,1-7.012,2.971c-5.665,0-9.534-3.869-9.534-9.258s3.765-9.223,8.878-9.223,8.809,3.765,8.809,9.223c0,.207-.035.483-.035.76m-15.2-1.831h12.885a6.456,6.456,0,0,0-12.885,0" transform="translate(-333.073 -12.91)" fill="#191919"/>
          <path id="패스_7439" data-name="패스 7439" d="M604.444,60.576a5.645,5.645,0,0,1-.483,2l-1.451,4.767h-1.658l1.175-5.009a1.746,1.746,0,0,1-1.244-1.762,1.831,1.831,0,1,1,3.662,0" transform="translate(-364.652 -35.635)" fill="#191919"/>
        </g>
      </g>
    </g>
  </g>
</svg>
