<svg id="그룹_27766" data-name="그룹 27766" xmlns="http://www.w3.org/2000/svg" width="44" height="44" viewBox="0 0 44 44">
  <circle id="타원_3" data-name="타원 3" cx="22" cy="22" r="22" fill="#016a8d"/>
  <g id="그룹_23701" data-name="그룹 23701" transform="translate(11 13)">
    <path id="패스_7109" data-name="패스 7109" d="M21.814,3.382a2.344,2.344,0,0,0-1.414-1.6C17.052.488,11.726.5,11.433.5S5.814.488,2.468,1.781a2.344,2.344,0,0,0-1.414,1.6A23.256,23.256,0,0,0,.5,9.09,23.264,23.264,0,0,0,1.054,14.8a2.34,2.34,0,0,0,1.414,1.6c3.206,1.237,8.224,1.28,8.9,1.28H11.5c.678,0,5.7-.044,8.9-1.28a2.344,2.344,0,0,0,1.414-1.6,23.29,23.29,0,0,0,.553-5.709A23.27,23.27,0,0,0,21.814,3.382Z" transform="translate(-0.5 -0.5)" fill="#fff"/>
    <path id="패스_7110" data-name="패스 7110" d="M11.664,13.936V6.9l5.283,3.511Z" transform="translate(-2.164 -1.402)" fill="#016a8d" stroke="#016a8d" stroke-linecap="round" stroke-linejoin="round" stroke-miterlimit="10" stroke-width="0.5"/>
  </g>
</svg>
