<svg xmlns="http://www.w3.org/2000/svg" xmlns:xlink="http://www.w3.org/1999/xlink" width="113.896" height="26" viewBox="0 0 113.896 26">
  <defs>
    <clipPath id="clip-path">
      <rect id="사각형_8330" data-name="사각형 8330" width="113.896" height="26" fill="none"/>
    </clipPath>
  </defs>
  <g id="그룹_27772" data-name="그룹 27772" transform="translate(0 0)">
    <path id="패스_7182" data-name="패스 7182" d="M21.84.154,13.6,21.124,5.25.154H0V25.819H1.913V5.4l8.172,20.414h3.652l8.1-20.553V25.819h5.078V.154Z" transform="translate(0 -0.097)" fill="#005d82"/>
    <g id="그룹_27771" data-name="그룹 27771" transform="translate(0 0)">
      <g id="그룹_27770" data-name="그룹 27770" clip-path="url(#clip-path)">
        <path id="패스_7183" data-name="패스 7183" d="M81.336,31.131c0-5.415,3.149-8.883,8.954-8.883s8.99,3.468,8.99,8.883-3.15,8.847-8.99,8.847c-5.875,0-8.954-3.362-8.954-8.847m12.776,0c0-4.991-.99-7.185-3.822-7.185s-3.822,2.194-3.822,7.185c0,4.955.99,7.185,3.822,7.185s3.822-2.23,3.822-7.185" transform="translate(-51.104 -13.979)" fill="#005d82"/>
        <path id="패스_7184" data-name="패스 7184" d="M136.264,17.4c0-5.634,3.024-8.729,7.581-8.729a8.354,8.354,0,0,1,4.625,1.217V.154h4.972V25.819h-4.8V24.811a8.341,8.341,0,0,1-4.8,1.286c-4.661,0-7.581-3.165-7.581-8.693m12.206,6.329V11.108a8.264,8.264,0,0,0-2.643-.452c-2.992,0-4.522,1.669-4.522,6.747,0,5.146,1.566,6.781,4.487,6.781a8.487,8.487,0,0,0,2.678-.452" transform="translate(-85.616 -0.097)" fill="#005d82"/>
        <path id="패스_7185" data-name="패스 7185" d="M190.635,31.77c0-5.911,3.651-8.693,8.312-8.693,5.042,0,8.068,2.678,8.068,8.381a8.326,8.326,0,0,1-.1,1.251H195.539c.1,4.973,1.53,6.017,6.051,6.017a24.559,24.559,0,0,0,4.521-.382v1.5a24.612,24.612,0,0,1-5.53.556c-5.876,0-9.945-1.774-9.945-8.625m4.9-.626h6.816c-.1-4.729-.66-6.4-3.372-6.4-2.574,0-3.374,1.634-3.443,6.4" transform="translate(-119.778 -14.499)" fill="#005d82"/>
        <path id="패스_7186" data-name="패스 7186" d="M236.87,23.825h5.25l5.356,13.424,5.25-13.424h2.052L248.1,40.692H243.65Z" transform="translate(-148.827 -14.969)" fill="#a0adac"/>
        <rect id="사각형_8329" data-name="사각형 8329" width="5.007" height="16.867" transform="translate(108.008 8.856)" fill="#a0adac"/>
        <path id="패스_7187" data-name="패스 7187" d="M288.218,0h6.768L291.6,5.924Z" transform="translate(-181.09 0)" fill="#ffc062"/>
      </g>
    </g>
  </g>
</svg>
